<?xml version="1.0" standalone="no"?>
<!DOCTYPE svg PUBLIC "-//W3C//DTD SVG 20010904//EN"
 "http://www.w3.org/TR/2001/REC-SVG-20010904/DTD/svg10.dtd">
<svg version="1.0" xmlns="http://www.w3.org/2000/svg"
 width="4083.000000pt" height="4083.000000pt" viewBox="0 0 4083.000000 4083.000000"
 preserveAspectRatio="xMidYMid meet">

<g transform="translate(0.000000,4083.000000) scale(0.100000,-0.100000)"
fill="#000000" stroke="none">
<path d="M15835 35319 c-82 -4 -199 -15 -259 -24 -198 -30 -469 -121 -646
-217 -316 -172 -669 -516 -844 -822 -104 -184 -232 -518 -279 -731 -21 -94
-22 -123 -22 -500 0 -247 5 -450 13 -530 12 -126 36 -240 53 -250 10 -7 17 68
23 245 5 152 18 220 40 220 20 0 34 -48 52 -179 30 -226 55 -368 102 -571 55
-241 62 -364 27 -435 -52 -108 -177 -185 -435 -270 -188 -62 -344 -127 -521
-215 -333 -167 -469 -279 -469 -387 0 -84 19 -108 301 -378 125 -119 194 -209
254 -330 69 -138 88 -223 89 -390 0 -157 -14 -226 -84 -424 -75 -210 -90 -306
-52 -343 52 -52 185 -38 340 37 115 55 192 105 354 228 171 129 257 186 357
236 93 47 210 81 280 81 56 0 147 -23 200 -49 107 -55 229 -191 340 -377 160
-269 248 -342 350 -289 46 23 122 116 176 215 159 289 215 364 316 417 52 27
60 28 189 28 157 0 177 -4 225 -47 46 -40 72 -92 144 -286 83 -223 135 -320
233 -434 67 -77 109 -93 231 -85 198 13 279 51 696 331 385 259 497 319 609
325 l75 3 -34 -47 c-183 -255 -464 -484 -799 -651 -247 -123 -432 -153 -925
-154 l-220 0 -80 -217 c-156 -422 -198 -483 -324 -470 -45 5 -61 12 -80 34
-21 25 -23 33 -18 98 7 83 43 225 130 510 97 313 136 504 137 656 0 84 -13
135 -39 148 -52 28 -133 -73 -256 -319 -70 -139 -137 -239 -205 -304 -82 -79
-134 -101 -236 -101 -75 0 -87 3 -165 42 -64 31 -102 59 -157 116 -92 92 -137
157 -232 332 -96 176 -159 248 -238 271 -38 11 -80 15 -136 12 -140 -7 -235
-65 -507 -306 -357 -317 -641 -376 -1006 -212 -35 16 -122 62 -195 104 -186
106 -308 155 -414 167 -205 23 -352 116 -427 269 -28 56 -32 74 -31 140 2 126
145 787 248 1146 201 704 414 920 1001 1019 77 13 226 33 330 45 314 34 441
61 483 101 21 19 22 23 9 42 -23 35 -80 40 -437 41 -357 1 -427 -5 -600 -50
-355 -92 -708 -418 -876 -805 -112 -260 -288 -861 -361 -1234 -24 -127 -27
-161 -27 -365 0 -257 7 -295 90 -495 93 -222 115 -286 112 -323 -3 -33 -8 -39
-58 -64 -30 -15 -89 -39 -131 -53 -91 -31 -165 -76 -180 -109 -7 -14 -9 -40
-5 -62 8 -40 63 -99 253 -272 120 -109 254 -265 290 -338 46 -93 9 -134 -120
-134 -78 0 -143 -19 -189 -54 -93 -70 -148 -294 -99 -402 25 -55 54 -74 114
-74 59 0 99 16 179 73 82 58 131 78 196 79 40 0 61 -5 90 -25 42 -27 43 -29
127 -222 115 -266 234 -459 366 -600 109 -114 191 -175 334 -245 169 -83 317
-123 631 -170 259 -38 411 -84 584 -177 111 -60 194 -116 425 -288 339 -253
405 -291 524 -304 103 -11 189 1 264 37 84 39 147 86 316 235 177 156 215 184
278 203 79 23 225 0 404 -66 176 -65 196 -43 239 265 51 357 122 603 276 953
227 514 819 1523 1094 1866 42 52 73 80 107 96 74 35 120 29 242 -30 399 -194
1489 -933 1934 -1312 448 -382 699 -557 1217 -848 286 -161 360 -190 398 -152
32 32 41 82 57 322 18 265 47 521 81 715 68 391 67 384 55 427 -16 51 -82 123
-129 140 -70 25 -512 1 -696 -37 -101 -21 -106 -21 -106 16 0 46 49 130 151
259 140 176 152 213 101 304 -37 68 -69 89 -143 94 -76 6 -144 -9 -274 -58
-166 -63 -298 -75 -377 -34 -77 40 -77 86 -4 244 95 202 97 244 15 334 -70 77
-119 94 -312 105 -197 12 -266 36 -307 104 -58 95 22 377 129 452 60 41 66 63
35 122 -86 163 -635 933 -899 1263 -117 146 -164 188 -256 233 -143 70 -302
102 -649 132 -229 19 -347 39 -380 63 -52 39 -65 78 -64 187 1 78 7 119 28
185 45 144 94 363 130 584 104 623 90 894 -58 1172 -169 318 -515 549 -1060
709 -741 217 -1524 167 -2271 -147 -65 -27 -216 -99 -335 -159 -118 -60 -232
-112 -254 -116 l-38 -6 7 34 c12 59 63 198 107 293 69 153 129 247 207 329
135 141 235 202 446 270 560 181 1413 257 1825 163 343 -79 671 -260 939 -520
127 -125 202 -216 302 -371 79 -123 135 -195 150 -195 18 0 8 89 -21 192 -80
285 -208 510 -409 721 -124 129 -209 200 -347 291 -203 133 -491 250 -724 294
-200 39 -468 54 -725 41z m525 -1609 c390 -41 818 -125 1117 -221 304 -98 327
-137 303 -517 -21 -330 -71 -501 -181 -617 -155 -164 -371 -182 -835 -71 -290
69 -387 80 -684 80 -285 0 -401 -12 -680 -70 -239 -49 -344 -64 -445 -64 -217
0 -342 83 -445 295 -95 194 -146 431 -138 634 3 68 12 134 21 159 47 133 156
204 420 272 224 58 588 121 818 140 153 13 507 3 729 -20z m564 -2527 c-97
-143 -161 -218 -283 -336 -232 -223 -399 -307 -616 -307 -236 0 -446 111 -716
380 -118 117 -169 183 -154 198 9 9 90 -37 173 -97 162 -118 372 -231 522
-281 147 -50 286 -38 468 40 165 70 266 142 499 354 87 80 162 145 166 145 5
1 -22 -43 -59 -96z m2028 -142 c102 -48 189 -141 313 -336 100 -158 243 -365
439 -635 200 -276 336 -477 336 -494 0 -15 -42 -36 -74 -36 -62 0 -224 -76
-868 -409 -182 -94 -201 -97 -290 -49 -121 65 -234 228 -245 357 -5 49 -2 67
17 103 34 68 148 212 275 348 220 236 305 353 305 419 0 22 -13 58 -32 91 -38
68 -177 205 -288 285 -188 136 -220 172 -207 227 11 41 84 124 130 148 53 27
102 22 189 -19z m-2022 -520 c0 -18 -142 -170 -235 -251 -231 -202 -416 -303
-625 -341 -36 -6 -121 -12 -190 -11 -255 0 -392 59 -620 264 -165 147 -287
298 -242 298 5 0 47 -23 93 -52 190 -116 239 -144 344 -194 241 -114 412 -162
542 -150 177 16 406 115 654 282 225 152 279 182 279 155z"/>
<path d="M20559 29351 c37 -68 416 -449 521 -523 99 -70 244 -155 354 -209 97
-48 146 -60 146 -38 0 19 -148 165 -270 268 -235 197 -541 419 -674 490 -69
36 -92 40 -77 12z"/>
<path d="M21751 28418 c13 -18 354 -366 759 -773 752 -757 916 -928 950 -996
36 -69 32 -73 -62 -63 -46 5 -123 8 -173 8 -99 -2 -126 -10 -335 -103 -64 -28
-137 -54 -162 -57 -45 -6 -48 -5 -66 26 -26 41 -40 121 -51 288 -14 190 -21
197 -186 197 -76 0 -98 -4 -146 -26 -139 -65 -219 -212 -219 -401 0 -277 155
-597 407 -839 115 -111 208 -171 373 -242 167 -72 532 -196 700 -237 200 -49
282 -40 363 38 136 131 162 427 53 601 -39 61 -113 119 -175 138 -68 20 -214
22 -291 4 -30 -7 -101 -34 -158 -59 -56 -25 -105 -42 -109 -38 -14 14 50 117
99 161 183 164 571 114 766 -100 75 -82 94 -148 94 -330 0 -123 -11 -299 -27
-446 l-5 -46 187 -171 c104 -94 222 -198 263 -233 124 -103 152 -129 214 -198
157 -176 212 -481 140 -766 -27 -108 -98 -239 -167 -309 -97 -99 -238 -156
-383 -156 -159 0 -223 63 -232 228 -6 101 13 160 63 198 57 43 83 32 130 -55
22 -41 52 -83 67 -94 60 -44 173 -9 268 85 128 126 158 323 81 544 -47 136
-111 234 -236 359 -133 133 -222 189 -397 250 -286 100 -886 230 -1288 280
-436 54 -1186 39 -1765 -35 -981 -126 -2255 -615 -3270 -1255 -372 -234 -1201
-811 -1559 -1085 -204 -156 -316 -281 -397 -441 -65 -130 -91 -235 -92 -369
-1 -195 44 -311 173 -441 86 -87 183 -140 297 -164 252 -52 3189 -275 4148
-315 1204 -49 2972 -72 3235 -41 150 17 285 52 363 93 94 50 256 215 349 358
237 364 504 920 633 1320 79 248 189 669 250 960 l33 155 16 -37 c30 -70 87
-313 93 -398 5 -73 2 -102 -22 -195 -81 -325 -375 -1010 -737 -1718 -152 -296
-216 -394 -328 -507 -93 -94 -99 -98 -279 -189 l-184 -94 -891 6 c-1130 7
-1638 23 -2471 78 -937 61 -2742 189 -3440 244 -209 16 -328 22 -363 16 -72
-11 -124 -49 -156 -112 -46 -93 -28 -190 47 -256 66 -58 124 -67 617 -93 107
-6 438 -35 735 -65 297 -30 812 -79 1145 -110 1084 -100 1607 -162 1679 -200
58 -29 66 -49 64 -149 -4 -191 -49 -409 -114 -545 -50 -106 -85 -150 -146
-184 -110 -59 -255 -59 -843 -2 -1266 123 -3257 271 -3565 263 -136 -3 -155
-5 -200 -28 -90 -45 -115 -122 -140 -441 -20 -256 -20 -449 1 -518 30 -101
123 -169 289 -211 281 -71 1221 -188 2935 -365 1315 -136 1716 -187 1843 -237
41 -16 14 -29 -48 -22 -125 12 -947 90 -1634 154 -1442 135 -2128 203 -2680
265 -363 42 -463 57 -596 92 -293 76 -344 170 -345 628 -1 422 -41 606 -147
668 -96 55 -333 33 -603 -56 -597 -197 -1133 -738 -1330 -1344 -142 -437 -66
-619 299 -707 200 -49 285 -45 335 15 45 53 59 134 81 455 8 121 22 263 31
315 65 378 215 603 578 863 140 100 134 78 -50 -187 -247 -355 -362 -690 -389
-1132 -16 -245 48 -672 130 -881 35 -87 105 -194 150 -228 93 -71 231 -103
398 -92 157 11 259 51 292 116 28 55 11 191 -36 283 -11 21 -19 48 -17 60 9
67 154 -9 368 -192 190 -165 211 -171 753 -196 180 -8 380 -22 445 -30 369
-48 515 -162 671 -525 73 -169 83 -231 84 -505 0 -308 -26 -500 -100 -730 -68
-211 -179 -408 -299 -529 -96 -98 -187 -126 -410 -126 -507 0 -944 114 -1129
296 -114 112 -125 198 -56 424 22 74 64 207 91 295 75 237 103 385 98 515 -4
85 -9 115 -30 160 -49 107 -160 188 -308 224 -193 46 -574 70 -1160 70 -484 1
-539 -4 -687 -60 -202 -76 -434 -328 -578 -628 -187 -392 -187 -697 2 -865 61
-54 183 -122 298 -164 257 -95 891 -218 1480 -287 350 -41 455 -82 455 -174 0
-66 -111 -190 -288 -323 -107 -81 -132 -81 -132 -4 0 58 -134 229 -216 277
-78 46 -265 78 -1125 193 -163 22 -321 48 -352 59 -231 78 -375 296 -418 637
-15 121 -7 410 15 528 51 278 173 514 355 690 187 181 394 282 696 342 221 43
308 77 379 149 52 51 75 113 83 216 12 162 -32 287 -124 351 -76 53 -159 76
-450 124 -285 48 -361 64 -468 103 -216 77 -236 177 -99 489 85 193 283 593
358 722 307 529 620 846 1026 1040 213 101 411 155 770 211 153 24 317 63 361
86 16 8 45 38 63 67 83 130 238 473 309 682 36 108 40 130 40 220 1 164 -42
245 -243 466 -134 147 -232 285 -257 364 -24 75 -29 299 -10 421 19 116 56
249 97 345 96 226 454 611 828 888 68 51 109 88 105 95 -28 45 -180 230 -206
250 -54 41 -71 41 -289 -8 -316 -71 -553 -111 -584 -99 -20 7 -17 41 7 79 34
56 158 163 284 245 66 42 160 104 210 136 439 285 688 654 583 863 -30 59 -55
70 -160 70 -156 0 -301 -41 -508 -145 -255 -128 -454 -170 -680 -145 -274 30
-461 101 -950 358 -690 362 -1206 614 -1540 752 -102 42 -217 95 -255 117 -96
56 -168 135 -211 231 -54 121 -63 137 -102 177 -52 53 -112 92 -189 122 -60
24 -82 27 -188 28 -112 0 -124 -2 -171 -27 -89 -47 -135 -120 -135 -214 0
-122 85 -207 281 -281 218 -82 380 -224 474 -418 70 -144 105 -350 90 -545
-14 -201 -12 -248 19 -314 47 -102 113 -182 405 -494 604 -646 1404 -1644
1784 -2227 110 -168 145 -238 173 -349 51 -200 60 -471 19 -550 -10 -20 -23
-38 -29 -39 -6 -1 -15 63 -22 158 -7 88 -21 195 -32 238 -39 148 -111 266
-187 302 -51 24 -92 16 -328 -66 -223 -77 -392 -114 -671 -149 -221 -27 -328
-45 -445 -75 -405 -103 -621 -297 -778 -695 -60 -153 -67 -262 -22 -350 13
-25 71 -94 130 -155 135 -139 137 -142 109 -197 -29 -57 -198 -225 -279 -277
-84 -54 -185 -86 -247 -76 -86 13 -159 57 -194 118 -23 39 -24 51 -24 192 1
104 8 193 23 291 41 257 75 346 207 545 161 241 184 327 115 424 -98 135 -405
294 -732 379 -194 50 -272 60 -473 60 -206 0 -399 -21 -1085 -120 -1077 -155
-1581 -252 -1980 -383 -306 -101 -483 -199 -651 -359 -168 -160 -262 -291
-549 -767 -106 -176 -367 -603 -580 -950 -523 -852 -647 -1069 -686 -1204 -15
-49 -15 -54 1 -70 15 -15 19 -13 52 24 59 66 340 446 500 675 357 512 502 747
753 1220 117 221 182 327 285 465 421 563 1052 882 2016 1019 310 44 423 51
834 51 422 -1 538 -10 735 -60 322 -81 840 -321 1004 -465 78 -69 98 -156 52
-234 -32 -55 -50 -69 -86 -68 -38 1 -57 12 -148 86 -350 284 -879 498 -1412
573 -171 23 -536 23 -710 -1 -612 -83 -1045 -263 -1483 -615 -570 -459 -1320
-1418 -1811 -2318 -96 -176 -283 -562 -360 -745 -369 -873 -576 -1749 -637
-2693 -14 -221 -13 -798 1 -1040 82 -1382 443 -2470 1087 -3274 546 -682 1320
-1148 2238 -1346 197 -43 305 -54 615 -66 314 -12 1138 1 1350 21 368 35 594
94 866 226 202 98 382 233 599 449 244 244 440 492 742 940 197 293 249 360
325 417 115 87 167 82 588 -57 411 -136 499 -152 1009 -185 386 -25 711 -55
1426 -131 2445 -258 4285 -506 5090 -685 218 -49 300 -76 376 -126 l64 -43
-65 -6 c-191 -19 -386 -4 -825 66 -1482 234 -4729 611 -5945 690 -305 20 -365
19 -415 -4 -85 -38 -168 -177 -168 -280 0 -139 76 -188 312 -202 261 -16 1096
-112 2651 -305 1759 -218 3219 -395 4190 -509 462 -54 968 -117 1375 -171 270
-36 475 -38 557 -5 93 36 138 108 138 218 0 131 -93 292 -389 673 -370 477
-558 667 -1341 1364 -680 604 -1110 1005 -1283 1194 -195 213 -356 533 -403
802 -22 128 -15 386 15 512 33 141 87 294 156 433 137 281 386 610 1295 1715
721 876 1037 1292 1583 2085 849 1231 1117 1596 1335 1818 104 106 179 162
292 216 173 84 165 43 -48 -227 -271 -344 -1340 -1771 -1982 -2647 -515 -702
-795 -1075 -900 -1195 -157 -180 -57 -93 365 320 198 194 599 590 890 880 855
849 1067 1050 1073 1017 10 -52 -224 -362 -583 -771 -82 -94 -320 -362 -530
-596 -209 -234 -497 -558 -640 -720 -398 -451 -701 -775 -1250 -1340 -400
-411 -699 -738 -765 -839 -76 -113 -104 -258 -97 -486 7 -220 41 -328 156
-499 159 -235 432 -501 1136 -1106 619 -532 926 -813 1287 -1176 256 -259 355
-368 556 -616 172 -212 205 -246 226 -229 8 7 27 48 41 92 59 177 170 256 375
267 127 6 201 -10 250 -54 43 -39 56 -76 70 -209 11 -103 45 -230 126 -472
373 -1113 771 -1882 1302 -2518 122 -145 466 -482 610 -597 681 -543 1474
-845 2412 -919 198 -16 868 -16 1110 0 828 53 1432 150 1882 301 805 271 1558
864 2285 1798 796 1024 1348 2124 1643 3277 125 488 168 807 190 1420 44 1207
-36 1912 -340 3004 -127 455 -160 644 -127 723 31 74 114 103 437 153 302 47
383 72 429 131 26 33 28 100 5 168 -67 196 -717 983 -1215 1471 -816 799
-1617 1265 -2616 1519 -339 86 -464 101 -953 116 -660 20 -934 37 -990 63 -30
15 -74 113 -154 346 -110 321 -196 639 -196 727 0 97 35 119 341 218 451 144
494 191 664 731 228 724 292 1100 282 1660 -5 300 -19 430 -66 640 -122 544
-446 1061 -971 1549 -553 514 -1264 837 -2194 995 -212 36 -236 39 -241 31 -8
-12 138 -73 430 -180 548 -200 1019 -423 1320 -625 115 -77 324 -252 290 -243
-11 3 -193 76 -405 162 -1015 414 -1543 592 -1975 667 -172 30 -403 32 -520 6
-257 -59 -547 -305 -703 -597 -75 -140 -98 -240 -68 -299 39 -74 112 -113 392
-211 235 -82 402 -153 445 -189 l34 -29 -29 -12 c-22 -8 -78 -8 -215 0 -345
20 -484 49 -721 150 -370 157 -436 170 -911 186 l-206 6 -6 -23 c-4 -13 -7
-55 -7 -92 0 -80 20 -128 75 -175 75 -67 147 -91 304 -103 151 -12 205 -31
226 -83 20 -48 19 -123 -5 -235 -11 -52 -20 -118 -20 -148 0 -50 3 -57 44
-101 44 -46 46 -47 103 -45 33 1 127 22 218 48 280 80 335 89 550 89 212 1
285 -10 481 -69 193 -59 404 -150 648 -282 277 -148 376 -215 376 -254 0 -44
-90 -37 -260 23 -319 111 -401 130 -545 130 -122 1 -165 -14 -300 -102 -113
-73 -218 -124 -300 -145 -103 -27 -337 -40 -469 -27 -117 11 -214 41 -201 62
19 30 185 55 475 70 319 16 385 28 435 77 66 65 84 168 40 221 -40 48 -95 65
-210 65 -227 -1 -942 -128 -1032 -185 -38 -23 -86 -84 -110 -138 -14 -32 -16
-33 -23 -15 -5 11 -9 66 -9 121 -1 117 -22 249 -52 329 -48 129 -170 274 -408
487 -80 71 -157 142 -169 157 -52 58 -80 140 -112 322 -53 312 -108 481 -220
683 -147 264 -356 513 -819 977 -523 523 -1170 1089 -1532 1342 -170 118 -230
145 -188 85z m7266 -3119 c205 -39 381 -106 684 -260 528 -268 843 -572 1000
-964 54 -137 60 -194 59 -661 0 -656 -21 -849 -126 -1175 -83 -260 -201 -508
-285 -602 -65 -73 -115 -91 -259 -90 -260 2 -658 131 -1118 362 -462 232 -763
483 -910 760 -78 145 -77 140 -77 726 1 330 5 569 13 655 34 362 89 568 222
828 100 196 189 296 319 361 51 25 154 63 206 74 51 12 174 5 272 -14z m-7202
-769 c415 -30 649 -120 874 -335 88 -84 152 -167 194 -250 158 -316 79 -837
-194 -1278 -218 -351 -562 -641 -950 -798 -226 -92 -413 -137 -654 -159 -189
-18 -1246 -24 -1735 -11 -1350 36 -2798 125 -2948 182 -43 16 -72 58 -72 103
0 91 109 216 396 455 1033 864 2386 1570 3684 1926 517 141 978 195 1405 165z
m4409 -1980 c44 -136 118 -410 256 -950 246 -961 461 -1757 530 -1954 43 -125
118 -210 212 -242 132 -44 328 21 388 128 41 73 38 153 -14 468 -61 374 -79
539 -73 680 6 150 28 209 107 294 104 111 210 151 380 144 92 -4 115 -8 172
-35 222 -104 296 -268 723 -1605 106 -333 146 -354 417 -221 272 135 453 175
862 194 843 39 1720 -107 2478 -412 184 -74 506 -230 678 -329 722 -416 1367
-1008 1922 -1766 204 -277 287 -421 296 -504 3 -39 0 -51 -23 -78 -59 -71
-124 -80 -217 -30 -80 43 -192 154 -378 377 -220 263 -318 371 -539 591 -701
699 -1471 1218 -2301 1552 -373 150 -808 266 -1170 312 -588 76 -1437 15
-1711 -122 -84 -42 -114 -82 -124 -167 -18 -142 86 -366 183 -396 23 -7 198
-14 462 -19 556 -11 791 -31 1010 -86 174 -44 297 -124 288 -189 -4 -30 -75
-31 -226 -1 -291 59 -593 82 -937 73 -374 -11 -617 -38 -925 -103 -584 -125
-666 -130 -749 -44 -116 120 -227 503 -181 625 18 46 155 87 445 130 99 14
189 29 200 31 19 5 20 10 13 177 -7 193 -19 271 -85 531 -114 455 -332 1010
-442 1126 -116 121 -340 27 -380 -160 -19 -89 -12 -198 35 -520 26 -177 48
-370 51 -440 5 -143 -4 -168 -74 -214 -65 -43 -114 -52 -458 -87 -406 -41
-677 -166 -1260 -582 -77 -55 -295 -216 -485 -357 -680 -506 -801 -576 -1046
-612 -100 -14 -115 -6 -116 60 -1 72 38 122 155 200 124 84 860 555 1352 867
865 548 955 625 943 810 -6 84 -39 156 -93 204 -44 38 -74 51 -121 51 -45 0
-67 -12 -129 -69 -61 -57 -168 -138 -345 -261 -192 -134 -440 -319 -700 -524
-342 -269 -578 -426 -640 -426 -53 0 -6 72 173 268 177 195 467 466 862 807
273 236 389 347 471 449 184 230 209 396 124 814 -77 375 -237 918 -287 974
-30 34 -93 58 -156 58 -83 0 -120 -19 -160 -82 -73 -114 -378 -699 -1112
-2133 -457 -892 -581 -1127 -672 -1266 -51 -78 -67 -93 -89 -85 -26 10 -12
106 30 206 20 47 146 297 281 555 285 545 806 1582 990 1965 276 576 365 786
365 858 0 70 -46 157 -129 244 l-70 75 157 -24 c86 -13 199 -24 250 -24 166
-2 221 49 263 243 27 127 27 127 45 103 8 -11 30 -67 48 -125z m-2744 -2234
c0 -23 -49 -154 -82 -221 -166 -332 -698 -1157 -1206 -1870 -460 -644 -1649
-2227 -2107 -2805 -142 -179 -237 -254 -447 -355 -199 -95 -353 -135 -522
-135 -171 0 -280 35 -435 137 -162 108 -449 422 -607 663 -246 377 -427 861
-499 1330 -23 150 -31 376 -15 424 10 32 154 225 179 240 14 9 1134 -12 1291
-24 362 -27 615 -75 1095 -210 227 -64 339 -87 493 -101 341 -31 677 67 954
277 104 79 268 251 375 394 158 212 245 349 746 1175 372 613 562 894 716
1058 35 37 71 49 71 23z m-13856 -222 c232 -32 552 -129 716 -216 280 -148
602 -418 667 -558 86 -184 89 -404 13 -714 -71 -283 -76 -471 -17 -600 37 -81
134 -152 398 -292 187 -99 279 -158 279 -179 0 -20 -75 -20 -193 0 -268 44
-537 22 -705 -57 -201 -94 -363 -369 -391 -665 -17 -172 20 -335 93 -407 76
-76 160 -83 403 -34 144 29 174 32 348 32 165 0 201 -3 270 -22 218 -60 349
-171 361 -304 4 -42 1 -60 -15 -85 -32 -51 -61 -63 -183 -79 -492 -64 -854
-242 -955 -470 -14 -32 -18 -79 -21 -272 -5 -326 4 -371 110 -514 114 -155
285 -284 475 -358 247 -97 491 -142 1106 -205 754 -78 1357 -169 1357 -206 0
-19 -413 -1 -935 41 -836 67 -1040 107 -2146 421 -868 246 -1317 350 -1712
399 -191 23 -205 30 -226 111 -27 110 8 152 143 169 176 22 502 -22 996 -135
294 -68 324 -72 370 -48 84 43 101 171 55 419 -14 74 -28 181 -31 237 -13 241
-54 315 -195 353 -71 18 -262 18 -417 -1 -382 -47 -802 -153 -1417 -355 -529
-174 -540 -176 -940 -190 -364 -13 -569 -26 -618 -40 -51 -15 -101 -61 -131
-122 -23 -46 -26 -64 -26 -152 0 -111 17 -238 51 -389 12 -53 19 -100 15 -105
-20 -19 -108 135 -151 263 -32 95 -43 232 -26 318 7 31 28 88 47 126 65 130
158 209 356 304 200 97 243 169 368 636 183 681 606 1325 1283 1952 324 300
400 301 700 2 117 -117 197 -219 197 -253 0 -21 -70 -54 -301 -144 -479 -186
-979 -451 -1232 -653 -210 -168 -488 -619 -577 -937 -29 -104 -27 -129 15
-175 45 -49 87 -58 179 -37 98 23 240 83 511 216 430 211 512 283 689 599 152
270 424 555 801 839 234 177 448 311 739 464 260 137 283 159 274 258 -9 95
-80 160 -214 195 -32 8 -138 20 -234 25 -96 5 -199 16 -229 24 -60 17 -125 56
-141 86 -9 17 -6 25 22 51 18 17 53 41 78 53 44 21 55 21 535 21 545 1 566 3
619 66 33 39 39 119 14 184 -37 96 -226 307 -383 426 -239 183 -486 308 -718
364 -224 55 -544 71 -767 40 -760 -108 -1657 -827 -2245 -1800 -95 -157 -250
-473 -323 -656 -229 -581 -427 -1345 -507 -1963 -26 -205 -37 -584 -25 -895
17 -454 47 -714 114 -972 66 -256 116 -377 189 -456 58 -63 105 -84 196 -90
83 -4 135 5 401 75 205 53 373 76 504 69 271 -14 1559 -320 3589 -851 615
-161 729 -186 855 -186 135 0 215 46 307 174 126 178 305 600 305 722 0 90
-33 103 -687 269 -750 190 -1174 315 -1878 550 -818 273 -1060 333 -1416 355
-165 10 -405 -1 -551 -24 -202 -33 -404 -96 -683 -214 -292 -123 -447 -167
-570 -160 -69 3 -78 6 -107 35 -28 29 -33 40 -36 98 -8 120 20 137 368 230
1062 283 1455 333 1920 244 58 -12 236 -58 395 -104 915 -264 2162 -591 2935
-769 974 -224 1713 -368 3200 -621 1296 -220 1658 -288 2745 -513 434 -90 567
-100 676 -50 148 68 210 184 230 430 26 325 -24 504 -193 682 -117 125 -247
185 -400 186 -217 0 -345 -91 -474 -341 -72 -140 -98 -179 -119 -179 -24 0
-35 36 -35 117 1 248 139 464 349 544 207 78 579 17 798 -132 71 -48 180 -156
225 -223 161 -235 200 -564 102 -863 -127 -388 -450 -580 -874 -519 -409 60
-1547 260 -2855 502 -776 144 -1727 307 -2120 365 -190 28 -427 30 -528 5
-223 -54 -329 -191 -381 -497 -8 -47 -22 -155 -31 -240 -27 -267 -51 -363
-100 -409 -44 -42 -94 -38 -385 28 -350 80 -898 212 -1525 367 -2286 565
-2602 629 -3045 612 -202 -8 -267 -31 -331 -120 -60 -83 -58 -151 10 -311 76
-178 173 -317 329 -472 277 -275 692 -501 1027 -558 352 -61 969 -23 1063 64
23 22 27 37 14 56 -4 7 -103 20 -242 33 -254 23 -508 62 -601 90 -76 24 -146
77 -226 170 -65 76 -123 165 -123 189 0 23 70 13 249 -35 l176 -48 190 1 c118
1 294 11 465 27 510 48 547 47 611 -21 25 -26 39 -52 44 -80 27 -163 -152
-400 -395 -522 -134 -67 -687 -272 -825 -305 -159 -39 -500 -38 -690 1 -409
84 -712 332 -1360 1109 -545 654 -714 883 -840 1140 -220 448 -298 827 -298
1445 0 426 29 776 98 1185 118 693 304 1277 600 1880 212 432 435 777 730
1130 122 147 442 470 585 591 604 512 1179 748 1775 728 77 -3 189 -12 249
-20z m11836 5 c348 -27 671 -93 779 -160 29 -17 32 -23 19 -30 -50 -28 -532
-45 -833 -30 -347 18 -440 52 -421 153 17 91 64 98 456 67z m5932 -1517 c23
-22 31 -48 52 -152 34 -171 76 -471 131 -935 94 -798 177 -1349 336 -2220 169
-930 450 -2334 494 -2472 6 -18 0 -30 -26 -56 -133 -132 -655 -154 -785 -34
-65 60 -63 158 7 513 64 326 64 433 -7 964 -92 687 -219 1315 -580 2865 -137
592 -148 630 -165 629 -36 -2 -468 -323 -669 -496 -352 -303 -803 -766 -1056
-1083 -322 -403 -655 -987 -875 -1538 -229 -569 -393 -1215 -473 -1857 -50
-400 -67 -729 -65 -1302 1 -499 -2 -533 -53 -585 -52 -54 -111 -68 -278 -68
-289 1 -554 84 -810 253 -231 153 -341 333 -360 590 -10 133 -34 193 -103 264
-96 99 -207 156 -485 247 -222 74 -376 138 -475 198 -281 168 -387 353 -374
653 20 449 273 976 684 1428 106 117 240 234 423 370 253 188 333 267 457 452
110 164 168 275 741 1405 606 1196 882 1699 914 1667 32 -32 -82 -296 -710
-1642 -623 -1338 -776 -1696 -896 -2097 -111 -374 -145 -644 -167 -1328 -22
-691 7 -963 109 -1031 42 -29 137 -23 246 15 114 40 130 40 121 4 -4 -16 -42
-102 -85 -193 -106 -224 -131 -301 -131 -400 0 -201 149 -437 352 -562 113
-70 162 -83 309 -83 222 0 308 55 340 220 17 87 25 806 11 1060 -16 314 -41
375 -154 375 -72 0 -143 -36 -307 -156 -74 -55 -169 -117 -209 -138 -85 -44
-85 -45 -18 73 64 112 137 176 457 397 63 43 149 113 191 154 l77 75 36 115
c20 63 52 189 71 280 60 283 96 428 151 620 226 789 571 1491 1046 2125 400
535 875 993 1458 1407 326 232 428 313 461 365 19 31 19 34 4 85 -22 76 -30
187 -16 231 21 64 151 159 389 285 168 89 212 96 264 44z m537 -311 c71 -71
144 -278 230 -651 76 -332 118 -447 182 -505 21 -19 54 -37 75 -41 61 -11 182
3 334 41 652 159 1197 115 1715 -140 382 -189 720 -487 1014 -897 193 -270
421 -717 525 -1030 110 -331 136 -598 136 -1408 0 -702 -13 -915 -71 -1225
-152 -802 -510 -1630 -997 -2305 -452 -626 -1115 -1259 -1702 -1627 -398 -250
-808 -408 -1184 -458 -160 -22 -491 -16 -629 9 -352 66 -678 208 -992 434
-1177 844 -1696 2724 -1284 4652 185 864 550 1689 1039 2345 165 222 402 486
553 616 111 96 148 77 206 -106 74 -228 97 -558 52 -725 -41 -154 -154 -417
-327 -763 -354 -706 -514 -1221 -588 -1892 -45 -405 -54 -951 -22 -1265 73
-719 257 -1309 561 -1800 189 -305 491 -629 800 -860 394 -294 774 -387 1099
-269 117 43 296 152 296 181 0 12 -228 121 -499 237 -371 160 -486 226 -648
370 -109 98 -200 201 -260 293 -78 120 -108 215 -123 379 -18 214 35 345 152
374 17 4 73 -5 153 -25 452 -113 911 -102 1573 36 119 25 273 57 342 71 96 20
156 26 260 27 122 1 139 -1 182 -22 61 -30 119 -96 188 -212 72 -122 137 -190
181 -190 66 0 173 105 389 381 229 293 359 518 523 904 171 404 190 520 100
594 -21 17 -52 36 -70 42 -48 16 -99 -13 -228 -126 -109 -96 -177 -141 -195
-130 -18 11 -11 69 39 316 93 459 106 588 106 1044 -1 490 -25 657 -136 935
-185 464 -526 820 -1028 1074 -172 87 -327 150 -582 235 -103 35 -201 72 -219
83 l-33 20 24 23 c60 60 506 295 634 335 148 46 639 49 810 5 201 -52 354
-146 535 -329 168 -170 261 -297 435 -596 117 -201 183 -301 203 -308 19 -6
15 161 -8 308 -77 504 -253 930 -541 1317 -95 127 -357 389 -484 484 -260 193
-593 352 -861 409 -125 27 -539 39 -733 21 -201 -19 -272 -37 -696 -185 -139
-48 -215 -67 -215 -52 0 3 -21 94 -46 203 -105 456 -284 1289 -284 1325 0 42
11 47 39 19z m-14479 -1425 c119 -17 190 -39 215 -66 16 -17 15 -19 -7 -33
-59 -38 -359 -49 -558 -22 -181 26 -358 86 -347 118 2 6 14 15 28 19 41 13
555 1 669 -16z m19930 -87 c439 -366 796 -762 1094 -1216 497 -757 812 -1697
833 -2483 11 -419 -36 -788 -131 -1015 l-41 -100 -7 87 c-16 186 -84 242 -316
258 -122 8 -174 18 -186 38 -7 12 37 80 119 181 114 142 146 245 89 290 -31
25 -66 26 -123 7 -125 -45 -315 -237 -421 -426 -75 -133 -126 -169 -240 -170
-86 0 -175 -24 -225 -59 -85 -60 -161 -192 -234 -405 -77 -224 -83 -265 -88
-672 l-5 -361 -117 -6 c-218 -10 -265 -46 -426 -327 -126 -219 -282 -429 -408
-547 -56 -53 -121 -92 -133 -80 -12 12 26 95 94 205 383 624 629 1197 821
1917 141 525 212 968 276 1720 19 231 42 449 50 485 45 193 161 290 349 290
196 0 261 -58 332 -296 15 -50 35 -102 45 -115 l19 -24 25 28 c46 51 101 288
90 387 -22 214 -144 298 -455 314 -195 11 -285 38 -316 98 -20 38 -18 60 13
131 20 49 26 78 26 137 0 96 -20 169 -98 360 -158 387 -425 1256 -425 1384 0
76 12 75 120 -15z m-18597 -829 c347 -49 501 -118 574 -257 43 -82 55 -141 54
-273 0 -228 -81 -413 -210 -484 -49 -26 -59 -28 -170 -27 -320 1 -1246 133
-1422 202 -16 6 -38 31 -55 62 -52 96 -32 254 50 390 135 223 371 370 656 407
100 13 359 3 523 -20z m-2516 -719 c64 -28 137 -105 152 -157 28 -101 1 -315
-46 -362 l-25 -25 -25 32 c-32 40 -127 104 -323 216 -188 107 -232 136 -287
188 -107 103 -27 138 302 134 185 -2 204 -4 252 -26z m17686 -586 c116 -58
371 -296 500 -467 208 -277 339 -593 392 -943 23 -150 23 -423 1 -580 -73
-505 -305 -956 -682 -1327 -366 -360 -799 -579 -1334 -675 -128 -23 -172 -26
-375 -27 -247 0 -325 9 -502 60 -346 99 -676 414 -889 849 -130 267 -172 445
-181 766 -13 455 73 874 201 987 74 65 228 82 282 31 l26 -24 -6 -160 c-4 -88
-11 -198 -16 -245 -16 -142 -31 -482 -25 -532 9 -67 40 -108 105 -140 91 -45
200 -58 575 -68 276 -7 357 -12 430 -28 231 -50 362 -128 636 -378 192 -175
224 -193 288 -160 46 24 107 100 130 161 54 143 76 361 68 665 -6 260 -22 341
-132 680 -124 383 -139 456 -140 670 0 214 14 274 116 479 113 230 231 386
322 427 50 22 141 13 210 -21z m-10335 -2737 c10 -81 -225 -406 -408 -565
-215 -186 -426 -288 -723 -348 -333 -67 -504 -51 -2527 241 -514 74 -1245 179
-1625 234 -861 124 -943 140 -1110 220 -91 43 -198 118 -215 150 -9 16 -8 25
2 37 36 43 441 -11 2483 -332 1948 -306 1990 -312 2386 -322 459 -11 763 44
1049 193 152 79 274 171 434 325 146 140 222 202 240 196 6 -2 12 -15 14 -29z"/>
<path d="M10560 18113 c-14 -9 -83 -60 -155 -113 -71 -53 -278 -201 -459 -328
-364 -257 -557 -408 -719 -562 -364 -346 -606 -793 -547 -1010 19 -72 87 -133
179 -160 67 -21 87 -22 235 -17 300 10 797 117 940 201 119 70 149 154 186
527 42 414 65 508 245 1009 91 253 131 374 148 448 6 27 -17 30 -53 5z"/>
<path d="M22094 14657 c-136 -101 -465 -426 -633 -627 -204 -243 -327 -472
-383 -710 -28 -122 -36 -400 -14 -493 43 -182 153 -300 394 -421 147 -74 261
-109 362 -110 96 -1 141 17 171 69 26 45 39 219 49 680 14 623 61 1176 126
1495 15 69 27 132 28 140 3 31 -41 21 -100 -23z"/>
<path d="M10850 28351 c-281 -83 -648 -240 -812 -348 -193 -127 -240 -241
-156 -381 39 -64 121 -142 150 -142 29 0 78 56 144 163 87 142 120 189 190
265 68 75 145 132 177 132 18 0 19 -5 14 -59 -4 -33 -29 -146 -57 -253 -213
-816 -200 -740 -420 -2478 -93 -731 -137 -1050 -150 -1085 -5 -13 -19 -29 -30
-35 -35 -19 -237 -30 -556 -30 -553 0 -778 -33 -1059 -154 -183 -78 -276 -138
-381 -241 -143 -143 -200 -277 -192 -456 3 -68 10 -97 32 -142 68 -140 217
-230 435 -262 303 -46 467 19 785 311 267 245 386 335 511 387 100 41 162 52
300 52 290 -1 417 -84 765 -500 350 -420 730 -796 1065 -1055 117 -91 421
-298 482 -329 52 -26 98 -28 108 -3 14 35 17 172 6 252 -17 115 -57 223 -171
460 -157 326 -207 465 -194 538 24 130 126 218 424 367 167 83 284 156 300
185 13 24 13 95 -1 143 -15 57 -89 156 -142 193 -96 66 -217 57 -392 -31 -127
-64 -250 -159 -349 -269 -81 -91 -141 -142 -177 -151 -21 -5 -34 0 -63 26 -74
64 -83 121 -36 216 43 86 126 179 388 432 325 313 376 379 375 482 -1 83 -28
126 -103 165 -46 23 -243 31 -378 14 -224 -27 -320 -54 -762 -209 -80 -28
-158 -51 -174 -51 -52 0 -112 44 -140 102 -64 134 -109 363 -110 563 -1 128 1
144 22 183 36 68 95 125 206 201 116 79 198 160 229 228 17 37 22 67 22 133 0
120 -31 184 -155 315 -111 118 -178 217 -220 327 -46 119 -63 216 -56 322 14
214 141 687 288 1071 70 182 158 433 158 451 0 20 -31 17 -140 -15z"/>
<path d="M9436 23189 c-213 -18 -287 -100 -317 -352 -22 -188 -59 -281 -190
-484 -119 -182 -194 -335 -209 -425 -23 -136 22 -298 87 -314 37 -10 176 19
362 73 799 233 1192 289 1730 249 118 -9 216 -14 218 -12 2 2 -46 63 -107 135
-135 161 -265 335 -476 631 -91 129 -194 262 -242 311 -135 141 -218 173 -491
189 -178 11 -226 10 -365 -1z"/>
<path d="M12640 23085 c-212 -44 -396 -163 -465 -302 -77 -154 -18 -403 97
-403 51 0 176 48 366 140 202 98 280 149 360 234 119 126 123 250 10 304 -87
43 -238 53 -368 27z"/>
<path d="M13055 22320 c-148 -16 -324 -75 -408 -136 -59 -43 -103 -103 -122
-167 -20 -69 -20 -234 1 -309 39 -139 136 -143 424 -19 269 116 418 257 449
425 13 73 7 102 -32 143 -52 55 -169 78 -312 63z"/>
<path d="M16760 20424 c-25 -2 -119 -9 -210 -15 -196 -12 -379 -42 -436 -70
-168 -81 -260 -396 -134 -456 53 -25 357 -45 1260 -83 721 -30 1489 -90 2340
-182 456 -49 709 -57 792 -25 60 23 121 91 144 160 36 105 18 273 -34 321 -47
42 -516 98 -1927 230 -1187 112 -1249 117 -1510 121 -132 1 -260 1 -285 -1z"/>
</g>
</svg>
